# xmcd CD database file
#
# Track frame offsets:
#	150
#	25650
#	44316
#	70428
#	95326
#	124562
#	155095
#	179577
#	200046
#	217814
#	236084
#	265311
#	291989
#
# Disc length: 4167 seconds
#
# Revision: 0
# Processed by: cddbd v1.5.2PL0 Copyright (c) Steve Scherf et al.
# Submitted via: CDex 1.79
#
DISCID=c310450d
DTITLE=Phil Campo and the Loose Change Jazz Band - Seattle Street Music
DYEAR=1994
DGENRE=Jazz
TTITLE0=Way Down Yonder in New Orleans
TTITLE1=At the Jazz Band Ball
TTITLE2=Basic Street Blues
TTITLE3=Struttin' With Some BBQ
TTITLE4=Won't You Come Home Bill Bailey
TTITLE5=Black and Blue
TTITLE6=The Bourbon Street Parade
TTITLE7=Hello Central, Give Me That Jazz
TTITLE8=The Muskrat Ramble
TTITLE9=Oh! Baby
TTITLE10=Original Jazz Band One Step
TTITLE11=Please Don't Talk About Me When I'm Gone
TTITLE12=That's A Plenty
EXTD=YEAR: 1994
EXTT0=
EXTT1=
EXTT2=
EXTT3=
EXTT4=
EXTT5=
EXTT6=
EXTT7=
EXTT8=
EXTT9=
EXTT10=
EXTT11=
EXTT12=
PLAYORDER=
